<?xml version="1.0" encoding="UTF-8" standalone="no"?>
<!-- Created with Inkscape (http://www.inkscape.org/) -->

<svg
   version="1.1"
   id="svg182"
   width="250"
   height="68"
   viewBox="0 0 250 68.000003"
   sodipodi:docname="slide_guard_v0.3.13.svg"
   inkscape:version="1.2.2 (b0a84865, 2022-12-01)"
   xml:space="preserve"
   xmlns:inkscape="http://www.inkscape.org/namespaces/inkscape"
   xmlns:sodipodi="http://sodipodi.sourceforge.net/DTD/sodipodi-0.dtd"
   xmlns="http://www.w3.org/2000/svg"
   xmlns:svg="http://www.w3.org/2000/svg"><defs
     id="defs186"><inkscape:perspective
       sodipodi:type="inkscape:persp3d"
       inkscape:vp_x="0 : 28.433896 : 1"
       inkscape:vp_y="0 : 999.99999 : 0"
       inkscape:vp_z="242.49963 : 28.433896 : 1"
       inkscape:persp3d-origin="121.24981 : 15.245194 : 1"
       id="perspective755" /><inkscape:perspective
       sodipodi:type="inkscape:persp3d"
       inkscape:vp_x="0 : 39.566106 : 1"
       inkscape:vp_y="0 : 1000 : 0"
       inkscape:vp_z="242.49963 : 39.566106 : 1"
       inkscape:persp3d-origin="121.24981 : 26.377404 : 1"
       id="perspective755-5" /></defs><sodipodi:namedview
     id="namedview184"
     pagecolor="#ffffff"
     bordercolor="#000000"
     borderopacity="0.25"
     inkscape:showpageshadow="2"
     inkscape:pageopacity="0.0"
     inkscape:pagecheckerboard="0"
     inkscape:deskcolor="#d1d1d1"
     showgrid="false"
     inkscape:zoom="3.0569693"
     inkscape:cx="57.246241"
     inkscape:cy="44.324946"
     inkscape:window-width="1728"
     inkscape:window-height="971"
     inkscape:window-x="0"
     inkscape:window-y="38"
     inkscape:window-maximized="0"
     inkscape:current-layer="g188"
     showguides="false"><sodipodi:guide
       position="144.38632,143.28107"
       orientation="0,-1"
       id="guide19488"
       inkscape:locked="false" /></sodipodi:namedview><g
     inkscape:groupmode="layer"
     inkscape:label="Image"
     id="g188"
     transform="translate(0.7897004,38.191785)"><path
       id="path3129"
       style="opacity:1;fill:#000080;fill-opacity:1;stroke-width:2;stroke-linecap:round;paint-order:markers stroke fill"
       d="m -0.7897004,-38.191785 v 18.091797 c 0.0315497,28.4783792 8.4853282,31.892482 15.7871094,40.783203 3.356899,4.08739 6.0625,7.034637 6.0625,9.125 h 1 c 0,-0.828419 0.08429,-1.636803 0.244141,-2.417969 1.118957,-5.46816 5.956924,-9.582031 11.755859,-9.582031 6.627354,0 12,5.372646 12,12 h 1 c -2.6e-5,-0.290756 0.02548,-0.576131 0.07617,-0.851563 0.354836,-1.928016 1.944357,-3.40625 4.658203,-3.40625 h 56.818356 10.13868 10.91796 10.13868 56.81836 c 2.71383,0 4.30336,1.478234 4.6582,3.40625 0.0507,0.275432 0.0762,0.560807 0.0762,0.851563 h 1 c 0,-6.627354 5.37265,-12 12,-12 5.79893,0 10.6369,4.113871 11.75586,9.582031 0.15984,0.781166 0.24414,1.58955 0.24414,2.417969 h 1 c 0,-2.090363 2.7056,-5.03761 6.0625,-9.125 7.30178,-8.890721 15.75561,-12.3048238 15.78711,-40.783203 v -18.091797 z m 49.6621094,10.597656 c 12.835969,0.186437 34.968096,2.023562 39.533203,10.935547 4.297017,8.9100423 -1.495325,13.3287399 -5.5,13.4316407 C 76.248642,-3.0558888 57.944495,-0.56064362 43.768893,1.433215 34.085448,2.7952327 22.86056,6.4195108 18.888034,2.7906369 13.955429,-1.7152616 13.497361,-8.2097444 16.2103,-12.637098 c 3.868007,-6.312356 10.867434,-11.525202 18.574218,-13.412109 4.111894,-1.006744 8.75458,-1.436982 14.087891,-1.544922 z m 150.675781,0 c 5.33331,0.10794 9.97599,0.538178 14.08789,1.544922 7.70678,1.886907 14.70621,7.099753 18.57422,13.412109 2.71294,4.4273536 2.25487,10.9218364 -2.67773,15.4277349 -3.97253,3.6288739 -15.19742,0.0046 -24.88086,-1.3574219 -14.17561,-1.99385862 -32.47976,-4.4891038 -39.13672,-4.6601563 -4.00468,-0.1029008 -9.79702,-4.5215984 -5.5,-13.4316407 4.5651,-8.911985 26.69723,-10.74911 39.5332,-10.935547 z M 84.106784,-1.437785 c 2.761412,0 5,2.23858837 5,5 0,2.7614119 -2.238588,5 -5,5 -2.761412,0 -5,-2.2385881 -5,-5 0,-2.76141163 2.238588,-5 5,-5 z m 80.207036,0 c 2.7614,0 5,2.23858837 5,5 0,2.7614119 -2.2386,5 -5,5 -2.76142,0 -5,-2.2385881 -5,-5 0,-2.76141163 2.23858,-5 5,-5 z"
       sodipodi:nodetypes="ccsccssccssccccssccssccscccccsssssccsssssccssssssssss" /></g></svg>
